<mxfile host="app.diagrams.net" agent="Mozilla/5.0 (iPad; CPU OS 18_0 like Mac OS X) AppleWebKit/605.1.15 (KHTML, like Gecko) CriOS/129.0.6668.69 Mobile/15E148 Safari/604.1" version="24.7.17">
  <diagram name="Page-1" id="lsegmB9ddKKtdY9w359p">
    <mxGraphModel>
      <root>
        <mxCell id="0" />
        <mxCell id="1" parent="0" />
      </root>
    </mxGraphModel>
  </diagram>
</mxfile>
